<mxfile host="app.diagrams.net" agent="Mozilla/5.0 (Windows NT 10.0; Win64; x64) AppleWebKit/537.36 (KHTML, like Gecko) Chrome/131.0.0.0 Safari/537.36" version="25.0.3">
  <diagram id="6a731a19-8d31-9384-78a2-239565b7b9f0" name="Page-1">
    <mxGraphModel dx="1353" dy="667" grid="1" gridSize="10" guides="1" tooltips="1" connect="1" arrows="1" fold="1" page="1" pageScale="1" pageWidth="1169" pageHeight="827" background="none" math="0" shadow="0">
      <root>
        <mxCell id="0" />
        <mxCell id="1" parent="0" />
        <mxCell id="2" value="start" style="shape=mxgraph.flowchart.terminator;strokeWidth=2;gradientColor=#d5739d;gradientDirection=north;fontStyle=0;html=1;fillColor=#e6d0de;strokeColor=#996185;" parent="1" vertex="1">
          <mxGeometry x="260" y="13" width="120" height="30" as="geometry" />
        </mxCell>
        <mxCell id="_YsPf8JZZJYzELwnrwj9-82" style="edgeStyle=orthogonalEdgeStyle;rounded=0;orthogonalLoop=1;jettySize=auto;html=1;exitX=0.5;exitY=1;exitDx=0;exitDy=0;exitPerimeter=0;entryX=0.5;entryY=0;entryDx=0;entryDy=0;entryPerimeter=0;strokeColor=#003366;" parent="1" source="3" target="_YsPf8JZZJYzELwnrwj9-70" edge="1">
          <mxGeometry relative="1" as="geometry">
            <mxPoint x="320.42857142857156" y="150" as="targetPoint" />
          </mxGeometry>
        </mxCell>
        <mxCell id="3" value="Hardware Initialization" style="shape=mxgraph.flowchart.data;strokeWidth=2;gradientDirection=north;fontStyle=0;html=1;fillColor=#cdeb8b;strokeColor=#36393d;" parent="1" vertex="1">
          <mxGeometry x="241" y="73" width="159" height="47" as="geometry" />
        </mxCell>
        <mxCell id="5" value="check for&lt;br&gt;serial&amp;nbsp; input" style="shape=mxgraph.flowchart.data;strokeWidth=2;gradientDirection=north;fontStyle=0;html=1;fillColor=#ffcc99;strokeColor=#36393d;" parent="1" vertex="1">
          <mxGeometry x="240.5" y="343" width="159" height="64" as="geometry" />
        </mxCell>
        <mxCell id="6" value="New input?" style="shape=mxgraph.flowchart.decision;strokeWidth=2;gradientColor=#ffd966;gradientDirection=north;fontStyle=0;html=1;fillColor=#fff2cc;strokeColor=#d6b656;" parent="1" vertex="1">
          <mxGeometry x="271" y="443" width="98" height="57" as="geometry" />
        </mxCell>
        <mxCell id="7" style="fontStyle=1;strokeColor=#003366;strokeWidth=1;html=1;" parent="1" source="2" target="3" edge="1">
          <mxGeometry relative="1" as="geometry" />
        </mxCell>
        <mxCell id="9" style="entryX=0.5;entryY=0;entryPerimeter=0;fontStyle=1;strokeColor=#003366;strokeWidth=1;html=1;" parent="1" source="5" target="6" edge="1">
          <mxGeometry relative="1" as="geometry" />
        </mxCell>
        <mxCell id="10" value="" style="edgeStyle=elbowEdgeStyle;elbow=horizontal;entryX=0.5;entryY=0.91;entryPerimeter=0;exitX=1;exitY=0.5;exitPerimeter=0;fontStyle=1;strokeColor=#003366;strokeWidth=1;html=1;entryDx=0;entryDy=0;" parent="1" source="6" target="51" edge="1">
          <mxGeometry x="381" y="28.5" width="100" height="100" as="geometry">
            <mxPoint x="750" y="591" as="sourcePoint" />
            <mxPoint x="765.395" y="462.5" as="targetPoint" />
            <Array as="points">
              <mxPoint x="545" y="454" />
            </Array>
          </mxGeometry>
        </mxCell>
        <mxCell id="11" value="No" style="text;fontStyle=0;html=1;strokeColor=none;gradientColor=none;fillColor=none;strokeWidth=2;" parent="1" vertex="1">
          <mxGeometry x="379" y="447" width="40" height="26" as="geometry" />
        </mxCell>
        <mxCell id="12" value="" style="edgeStyle=elbowEdgeStyle;elbow=horizontal;fontColor=#001933;fontStyle=1;strokeColor=#003366;strokeWidth=1;html=1;exitX=0.5;exitY=1;exitDx=0;exitDy=0;entryX=0.5;entryY=0;entryDx=0;entryDy=0;entryPerimeter=0;exitPerimeter=0;" parent="1" source="6" target="_YsPf8JZZJYzELwnrwj9-55" edge="1">
          <mxGeometry width="100" height="100" as="geometry">
            <mxPoint y="244" as="sourcePoint" />
            <mxPoint x="260" y="604" as="targetPoint" />
          </mxGeometry>
        </mxCell>
        <mxCell id="14" value="Yes" style="text;fontStyle=0;html=1;strokeColor=none;gradientColor=none;fillColor=none;strokeWidth=2;align=center;" parent="1" vertex="1">
          <mxGeometry x="280" y="501" width="40" height="26" as="geometry" />
        </mxCell>
        <mxCell id="51" value="Heartbeat Led Flash" style="shape=mxgraph.flowchart.paper_tape;strokeWidth=2;gradientDirection=north;fontStyle=0;html=1;fillColor=#cdeb8b;strokeColor=#36393d;" parent="1" vertex="1">
          <mxGeometry x="470" y="391" width="150" height="55" as="geometry" />
        </mxCell>
        <mxCell id="52" value="" style="edgeStyle=elbowEdgeStyle;elbow=horizontal;exitX=0.5;exitY=0.09;exitPerimeter=0;entryX=0.905;entryY=0.5;entryPerimeter=0;fontStyle=1;strokeColor=#003366;strokeWidth=1;html=1;" parent="1" source="51" target="5" edge="1">
          <mxGeometry width="100" height="100" as="geometry">
            <mxPoint y="244" as="sourcePoint" />
            <mxPoint x="100" y="144" as="targetPoint" />
            <Array as="points">
              <mxPoint x="545" y="444" />
            </Array>
          </mxGeometry>
        </mxCell>
        <mxCell id="54" value="" style="edgeStyle=elbowEdgeStyle;elbow=horizontal;exitX=0.137;exitY=0.378;exitPerimeter=0;entryX=0.095;entryY=0.5;entryPerimeter=0;fontStyle=1;strokeColor=#003366;strokeWidth=1;html=1;exitDx=0;exitDy=0;" parent="1" source="_YsPf8JZZJYzELwnrwj9-94" target="5" edge="1">
          <mxGeometry width="100" height="100" as="geometry">
            <mxPoint y="244" as="sourcePoint" />
            <mxPoint x="100" y="144" as="targetPoint" />
            <Array as="points">
              <mxPoint x="120" y="1114" />
            </Array>
          </mxGeometry>
        </mxCell>
        <mxCell id="_YsPf8JZZJYzELwnrwj9-66" value="" style="edgeStyle=orthogonalEdgeStyle;rounded=0;orthogonalLoop=1;jettySize=auto;html=1;strokeColor=#003366;" parent="1" edge="1">
          <mxGeometry relative="1" as="geometry">
            <mxPoint x="319.5111111111112" y="651" as="sourcePoint" />
            <mxPoint x="321" y="685" as="targetPoint" />
          </mxGeometry>
        </mxCell>
        <mxCell id="_YsPf8JZZJYzELwnrwj9-55" value="&lt;div&gt;&lt;span style=&quot;background-color: initial;&quot;&gt;Valid&lt;/span&gt;&lt;/div&gt;&lt;div&gt;SCPI&lt;div&gt;Command?&lt;/div&gt;&lt;/div&gt;" style="shape=mxgraph.flowchart.decision;strokeWidth=2;gradientColor=#ffd966;gradientDirection=north;fontStyle=0;html=1;fillColor=#fff2cc;strokeColor=#d6b656;" parent="1" vertex="1">
          <mxGeometry x="261" y="570" width="119" height="81" as="geometry" />
        </mxCell>
        <mxCell id="_YsPf8JZZJYzELwnrwj9-57" value="&lt;div&gt;&lt;br&gt;&lt;/div&gt;Turn ON Fail Red Led&lt;div&gt;Send Error Beep&lt;/div&gt;&lt;div&gt;Register error on FIFO&lt;/div&gt;&lt;div&gt;&lt;br&gt;&lt;/div&gt;" style="shape=mxgraph.flowchart.paper_tape;strokeWidth=2;gradientDirection=north;fontStyle=0;html=1;fillColor=#cdeb8b;strokeColor=#36393d;" parent="1" vertex="1">
          <mxGeometry x="471" y="492" width="150" height="82" as="geometry" />
        </mxCell>
        <mxCell id="_YsPf8JZZJYzELwnrwj9-61" value="No" style="text;fontStyle=0;html=1;strokeColor=none;gradientColor=none;fillColor=none;strokeWidth=2;" parent="1" vertex="1">
          <mxGeometry x="384" y="588" width="40" height="26" as="geometry" />
        </mxCell>
        <mxCell id="_YsPf8JZZJYzELwnrwj9-63" value="Extract&amp;nbsp; parameters&lt;div&gt;&amp;nbsp;from command&lt;/div&gt;" style="shape=mxgraph.flowchart.data;strokeWidth=2;gradientDirection=north;fontStyle=0;html=1;fillColor=#cdeb8b;strokeColor=#36393d;" parent="1" vertex="1">
          <mxGeometry x="241" y="781" width="159" height="80" as="geometry" />
        </mxCell>
        <mxCell id="_YsPf8JZZJYzELwnrwj9-65" value="Valid&lt;br&gt;&lt;div&gt;parameters?&lt;/div&gt;" style="shape=mxgraph.flowchart.decision;strokeWidth=2;gradientColor=#ffd966;gradientDirection=north;fontStyle=0;html=1;fillColor=#fff2cc;strokeColor=#d6b656;" parent="1" vertex="1">
          <mxGeometry x="260" y="895" width="119" height="70" as="geometry" />
        </mxCell>
        <mxCell id="_YsPf8JZZJYzELwnrwj9-68" value="Parse command" style="shape=mxgraph.flowchart.data;strokeWidth=2;gradientDirection=north;fontStyle=0;html=1;fillColor=#cdeb8b;strokeColor=#36393d;" parent="1" vertex="1">
          <mxGeometry x="241" y="685" width="159" height="56" as="geometry" />
        </mxCell>
        <mxCell id="_YsPf8JZZJYzELwnrwj9-70" value="Read EEprom&amp;nbsp;&lt;div&gt;parameters&lt;/div&gt;" style="shape=mxgraph.flowchart.data;strokeWidth=2;gradientDirection=north;fontStyle=0;html=1;fillColor=#cdeb8b;strokeColor=#36393d;" parent="1" vertex="1">
          <mxGeometry x="241" y="154" width="159" height="50" as="geometry" />
        </mxCell>
        <mxCell id="_YsPf8JZZJYzELwnrwj9-71" value="Data corrupt?" style="shape=mxgraph.flowchart.decision;strokeWidth=2;gradientColor=#ffd966;gradientDirection=north;fontStyle=0;html=1;fillColor=#fff2cc;strokeColor=#d6b656;" parent="1" vertex="1">
          <mxGeometry x="271.5" y="231" width="98" height="57" as="geometry" />
        </mxCell>
        <mxCell id="_YsPf8JZZJYzELwnrwj9-72" value="Take default parameters&lt;div&gt;Send Beep Code&lt;/div&gt;" style="shape=mxgraph.flowchart.paper_tape;strokeWidth=2;gradientDirection=north;fontStyle=0;html=1;fillColor=#cdeb8b;strokeColor=#36393d;" parent="1" vertex="1">
          <mxGeometry x="435" y="266" width="150" height="55" as="geometry" />
        </mxCell>
        <mxCell id="_YsPf8JZZJYzELwnrwj9-73" style="edgeStyle=orthogonalEdgeStyle;rounded=1;orthogonalLoop=1;jettySize=auto;html=1;exitX=1;exitY=0.5;exitDx=0;exitDy=0;exitPerimeter=0;entryX=0.5;entryY=0.09;entryDx=0;entryDy=0;entryPerimeter=0;curved=0;strokeColor=#003366;" parent="1" source="_YsPf8JZZJYzELwnrwj9-71" target="_YsPf8JZZJYzELwnrwj9-72" edge="1">
          <mxGeometry relative="1" as="geometry">
            <Array as="points">
              <mxPoint x="402" y="260" />
              <mxPoint x="510" y="260" />
            </Array>
          </mxGeometry>
        </mxCell>
        <mxCell id="_YsPf8JZZJYzELwnrwj9-74" style="edgeStyle=orthogonalEdgeStyle;rounded=0;orthogonalLoop=1;jettySize=auto;html=1;exitX=0.5;exitY=1;exitDx=0;exitDy=0;exitPerimeter=0;entryX=0.5;entryY=0;entryDx=0;entryDy=0;entryPerimeter=0;strokeColor=#003366;" parent="1" source="_YsPf8JZZJYzELwnrwj9-71" target="5" edge="1">
          <mxGeometry relative="1" as="geometry" />
        </mxCell>
        <mxCell id="_YsPf8JZZJYzELwnrwj9-75" style="edgeStyle=orthogonalEdgeStyle;rounded=0;orthogonalLoop=1;jettySize=auto;html=1;exitX=0.5;exitY=1;exitDx=0;exitDy=0;exitPerimeter=0;entryX=0.5;entryY=0;entryDx=0;entryDy=0;entryPerimeter=0;strokeColor=#003366;" parent="1" source="_YsPf8JZZJYzELwnrwj9-70" target="_YsPf8JZZJYzELwnrwj9-71" edge="1">
          <mxGeometry relative="1" as="geometry" />
        </mxCell>
        <mxCell id="_YsPf8JZZJYzELwnrwj9-79" style="edgeStyle=orthogonalEdgeStyle;rounded=1;orthogonalLoop=1;jettySize=auto;html=1;exitX=0.5;exitY=0.91;exitDx=0;exitDy=0;exitPerimeter=0;entryX=0.5;entryY=0;entryDx=0;entryDy=0;entryPerimeter=0;curved=0;strokeColor=#003366;" parent="1" source="_YsPf8JZZJYzELwnrwj9-72" target="5" edge="1">
          <mxGeometry relative="1" as="geometry">
            <Array as="points">
              <mxPoint x="510" y="330" />
              <mxPoint x="320" y="330" />
            </Array>
          </mxGeometry>
        </mxCell>
        <mxCell id="_YsPf8JZZJYzELwnrwj9-80" value="No" style="text;fontStyle=0;html=1;strokeColor=none;gradientColor=none;fillColor=none;strokeWidth=2;" parent="1" vertex="1">
          <mxGeometry x="329" y="288" width="40" height="26" as="geometry" />
        </mxCell>
        <mxCell id="_YsPf8JZZJYzELwnrwj9-81" value="Yes" style="text;fontStyle=0;html=1;strokeColor=none;gradientColor=none;fillColor=none;strokeWidth=2;align=center;" parent="1" vertex="1">
          <mxGeometry x="369" y="231" width="40" height="26" as="geometry" />
        </mxCell>
        <mxCell id="_YsPf8JZZJYzELwnrwj9-83" style="edgeStyle=orthogonalEdgeStyle;rounded=1;orthogonalLoop=1;jettySize=auto;html=1;exitX=1;exitY=0.5;exitDx=0;exitDy=0;exitPerimeter=0;entryX=0.5;entryY=0.91;entryDx=0;entryDy=0;entryPerimeter=0;curved=0;strokeColor=#003366;" parent="1" source="_YsPf8JZZJYzELwnrwj9-65" target="_YsPf8JZZJYzELwnrwj9-57" edge="1">
          <mxGeometry relative="1" as="geometry" />
        </mxCell>
        <mxCell id="_YsPf8JZZJYzELwnrwj9-85" value="No" style="text;fontStyle=0;html=1;strokeColor=none;gradientColor=none;fillColor=none;strokeWidth=2;" parent="1" vertex="1">
          <mxGeometry x="395" y="908" width="40" height="16" as="geometry" />
        </mxCell>
        <mxCell id="_YsPf8JZZJYzELwnrwj9-106" style="edgeStyle=orthogonalEdgeStyle;rounded=0;orthogonalLoop=1;jettySize=auto;html=1;exitX=0.5;exitY=1;exitDx=0;exitDy=0;exitPerimeter=0;strokeColor=#003366;" parent="1" source="_YsPf8JZZJYzELwnrwj9-90" target="_YsPf8JZZJYzELwnrwj9-91" edge="1">
          <mxGeometry relative="1" as="geometry" />
        </mxCell>
        <mxCell id="_YsPf8JZZJYzELwnrwj9-90" value="Local command?" style="shape=mxgraph.flowchart.decision;strokeWidth=2;gradientColor=#ffd966;gradientDirection=north;fontStyle=0;html=1;fillColor=#fff2cc;strokeColor=#d6b656;" parent="1" vertex="1">
          <mxGeometry x="260.5" y="1002" width="119" height="70" as="geometry" />
        </mxCell>
        <mxCell id="_YsPf8JZZJYzELwnrwj9-91" value="Execute Command" style="shape=mxgraph.flowchart.data;strokeWidth=2;gradientDirection=north;fontStyle=0;html=1;fillColor=#cdeb8b;strokeColor=#36393d;" parent="1" vertex="1">
          <mxGeometry x="240" y="1125" width="159" height="50" as="geometry" />
        </mxCell>
        <mxCell id="_YsPf8JZZJYzELwnrwj9-94" value="Send Answer&lt;div&gt;&amp;nbsp;on Serial port&lt;/div&gt;" style="shape=mxgraph.flowchart.data;strokeWidth=2;gradientDirection=north;fontStyle=0;html=1;fillColor=#ffcc99;strokeColor=#36393d;" parent="1" vertex="1">
          <mxGeometry x="240" y="1541" width="159" height="60" as="geometry" />
        </mxCell>
        <mxCell id="_YsPf8JZZJYzELwnrwj9-95" value="Identify External&amp;nbsp;&lt;div&gt;I2C device&lt;/div&gt;" style="shape=mxgraph.flowchart.data;strokeWidth=2;gradientDirection=north;fontStyle=0;html=1;fillColor=#cdeb8b;strokeColor=#36393d;" parent="1" vertex="1">
          <mxGeometry x="477" y="1070" width="159" height="50" as="geometry" />
        </mxCell>
        <mxCell id="_YsPf8JZZJYzELwnrwj9-96" value="Translate command&amp;nbsp;&lt;div&gt;to I2C command&lt;/div&gt;" style="shape=mxgraph.flowchart.data;strokeWidth=2;gradientDirection=north;fontStyle=0;html=1;fillColor=#cdeb8b;strokeColor=#36393d;" parent="1" vertex="1">
          <mxGeometry x="477" y="1156" width="159" height="50" as="geometry" />
        </mxCell>
        <mxCell id="_YsPf8JZZJYzELwnrwj9-97" value="Send Command&lt;div&gt;&amp;nbsp;to I2C Device&lt;/div&gt;" style="shape=mxgraph.flowchart.data;strokeWidth=2;gradientDirection=north;fontStyle=0;html=1;fillColor=#cdeb8b;strokeColor=#36393d;" parent="1" vertex="1">
          <mxGeometry x="477" y="1238.5" width="159" height="50" as="geometry" />
        </mxCell>
        <mxCell id="_YsPf8JZZJYzELwnrwj9-98" value="Read I2C device&amp;nbsp;&lt;div&gt;answer&lt;/div&gt;" style="shape=mxgraph.flowchart.data;strokeWidth=2;gradientDirection=north;fontStyle=0;html=1;fillColor=#cdeb8b;strokeColor=#36393d;" parent="1" vertex="1">
          <mxGeometry x="477" y="1320" width="159" height="50" as="geometry" />
        </mxCell>
        <mxCell id="_YsPf8JZZJYzELwnrwj9-99" value="&amp;nbsp;Error?" style="shape=mxgraph.flowchart.decision;strokeWidth=2;gradientColor=#ffd966;gradientDirection=north;fontStyle=0;html=1;fillColor=#fff2cc;strokeColor=#d6b656;" parent="1" vertex="1">
          <mxGeometry x="260" y="1410" width="119" height="70" as="geometry" />
        </mxCell>
        <mxCell id="_YsPf8JZZJYzELwnrwj9-100" value="" style="edgeStyle=elbowEdgeStyle;elbow=horizontal;fontStyle=1;strokeColor=#003366;strokeWidth=1;html=1;entryX=0.5;entryY=0;entryDx=0;entryDy=0;entryPerimeter=0;exitX=1;exitY=0.5;exitDx=0;exitDy=0;exitPerimeter=0;" parent="1" source="_YsPf8JZZJYzELwnrwj9-90" target="_YsPf8JZZJYzELwnrwj9-95" edge="1">
          <mxGeometry x="381" y="28.5" width="100" height="100" as="geometry">
            <mxPoint x="380" y="990" as="sourcePoint" />
            <mxPoint x="689" y="933" as="targetPoint" />
            <Array as="points">
              <mxPoint x="557" y="1030" />
            </Array>
          </mxGeometry>
        </mxCell>
        <mxCell id="_YsPf8JZZJYzELwnrwj9-103" style="edgeStyle=orthogonalEdgeStyle;rounded=0;orthogonalLoop=1;jettySize=auto;html=1;exitX=0.5;exitY=1;exitDx=0;exitDy=0;exitPerimeter=0;entryX=0.5;entryY=0;entryDx=0;entryDy=0;entryPerimeter=0;strokeColor=#003366;" parent="1" source="_YsPf8JZZJYzELwnrwj9-68" target="_YsPf8JZZJYzELwnrwj9-63" edge="1">
          <mxGeometry relative="1" as="geometry" />
        </mxCell>
        <mxCell id="_YsPf8JZZJYzELwnrwj9-104" style="edgeStyle=orthogonalEdgeStyle;rounded=0;orthogonalLoop=1;jettySize=auto;html=1;exitX=0.5;exitY=1;exitDx=0;exitDy=0;exitPerimeter=0;entryX=0.5;entryY=0;entryDx=0;entryDy=0;entryPerimeter=0;strokeColor=#003366;" parent="1" source="_YsPf8JZZJYzELwnrwj9-63" target="_YsPf8JZZJYzELwnrwj9-65" edge="1">
          <mxGeometry relative="1" as="geometry" />
        </mxCell>
        <mxCell id="_YsPf8JZZJYzELwnrwj9-105" style="edgeStyle=orthogonalEdgeStyle;rounded=0;orthogonalLoop=1;jettySize=auto;html=1;exitX=0.5;exitY=1;exitDx=0;exitDy=0;exitPerimeter=0;entryX=0.5;entryY=0;entryDx=0;entryDy=0;entryPerimeter=0;strokeColor=#003366;" parent="1" source="_YsPf8JZZJYzELwnrwj9-65" target="_YsPf8JZZJYzELwnrwj9-90" edge="1">
          <mxGeometry relative="1" as="geometry">
            <Array as="points">
              <mxPoint x="320" y="965" />
            </Array>
          </mxGeometry>
        </mxCell>
        <mxCell id="_YsPf8JZZJYzELwnrwj9-110" style="edgeStyle=orthogonalEdgeStyle;rounded=0;orthogonalLoop=1;jettySize=auto;html=1;exitX=0.5;exitY=1;exitDx=0;exitDy=0;exitPerimeter=0;strokeColor=#003366;" parent="1" source="_YsPf8JZZJYzELwnrwj9-107" target="_YsPf8JZZJYzELwnrwj9-99" edge="1">
          <mxGeometry relative="1" as="geometry" />
        </mxCell>
        <mxCell id="_YsPf8JZZJYzELwnrwj9-107" value="Collect Answer" style="shape=mxgraph.flowchart.data;strokeWidth=2;gradientDirection=north;fontStyle=0;html=1;fillColor=#cdeb8b;strokeColor=#36393d;" parent="1" vertex="1">
          <mxGeometry x="240" y="1237" width="159" height="50" as="geometry" />
        </mxCell>
        <mxCell id="_YsPf8JZZJYzELwnrwj9-108" style="edgeStyle=orthogonalEdgeStyle;rounded=1;orthogonalLoop=1;jettySize=auto;html=1;curved=0;strokeColor=#003366;entryX=0.5;entryY=0.91;entryDx=0;entryDy=0;entryPerimeter=0;exitX=1;exitY=0.5;exitDx=0;exitDy=0;exitPerimeter=0;" parent="1" source="_YsPf8JZZJYzELwnrwj9-99" target="_YsPf8JZZJYzELwnrwj9-57" edge="1">
          <mxGeometry relative="1" as="geometry">
            <mxPoint x="380" y="1446" as="sourcePoint" />
            <mxPoint x="550" y="610" as="targetPoint" />
            <Array as="points">
              <mxPoint x="379" y="1446" />
              <mxPoint x="668" y="1446" />
              <mxPoint x="668" y="617" />
              <mxPoint x="546" y="617" />
            </Array>
          </mxGeometry>
        </mxCell>
        <mxCell id="_YsPf8JZZJYzELwnrwj9-109" style="edgeStyle=orthogonalEdgeStyle;rounded=0;orthogonalLoop=1;jettySize=auto;html=1;exitX=0.5;exitY=1;exitDx=0;exitDy=0;exitPerimeter=0;entryX=0.5;entryY=0;entryDx=0;entryDy=0;entryPerimeter=0;strokeColor=#003366;" parent="1" source="_YsPf8JZZJYzELwnrwj9-91" target="_YsPf8JZZJYzELwnrwj9-107" edge="1">
          <mxGeometry relative="1" as="geometry" />
        </mxCell>
        <mxCell id="_YsPf8JZZJYzELwnrwj9-111" style="edgeStyle=orthogonalEdgeStyle;rounded=1;orthogonalLoop=1;jettySize=auto;html=1;exitX=0.5;exitY=1;exitDx=0;exitDy=0;exitPerimeter=0;entryX=0.5;entryY=0;entryDx=0;entryDy=0;entryPerimeter=0;curved=0;strokeColor=#003366;" parent="1" source="_YsPf8JZZJYzELwnrwj9-98" target="_YsPf8JZZJYzELwnrwj9-99" edge="1">
          <mxGeometry relative="1" as="geometry" />
        </mxCell>
        <mxCell id="_YsPf8JZZJYzELwnrwj9-112" style="edgeStyle=orthogonalEdgeStyle;rounded=0;orthogonalLoop=1;jettySize=auto;html=1;exitX=0.5;exitY=1;exitDx=0;exitDy=0;exitPerimeter=0;entryX=0.5;entryY=0;entryDx=0;entryDy=0;entryPerimeter=0;strokeColor=#003366;" parent="1" source="_YsPf8JZZJYzELwnrwj9-95" target="_YsPf8JZZJYzELwnrwj9-96" edge="1">
          <mxGeometry relative="1" as="geometry" />
        </mxCell>
        <mxCell id="_YsPf8JZZJYzELwnrwj9-115" style="edgeStyle=orthogonalEdgeStyle;rounded=0;orthogonalLoop=1;jettySize=auto;html=1;exitX=0.5;exitY=1;exitDx=0;exitDy=0;exitPerimeter=0;entryX=0.5;entryY=0;entryDx=0;entryDy=0;entryPerimeter=0;strokeColor=#003366;" parent="1" source="_YsPf8JZZJYzELwnrwj9-97" target="_YsPf8JZZJYzELwnrwj9-98" edge="1">
          <mxGeometry relative="1" as="geometry" />
        </mxCell>
        <mxCell id="_YsPf8JZZJYzELwnrwj9-116" style="edgeStyle=orthogonalEdgeStyle;rounded=0;orthogonalLoop=1;jettySize=auto;html=1;exitX=0.5;exitY=1;exitDx=0;exitDy=0;exitPerimeter=0;entryX=0.5;entryY=0;entryDx=0;entryDy=0;entryPerimeter=0;strokeColor=#003366;" parent="1" source="_YsPf8JZZJYzELwnrwj9-96" target="_YsPf8JZZJYzELwnrwj9-97" edge="1">
          <mxGeometry relative="1" as="geometry" />
        </mxCell>
        <mxCell id="_YsPf8JZZJYzELwnrwj9-117" style="edgeStyle=orthogonalEdgeStyle;rounded=0;orthogonalLoop=1;jettySize=auto;html=1;exitX=0.5;exitY=1;exitDx=0;exitDy=0;exitPerimeter=0;entryX=0.5;entryY=0;entryDx=0;entryDy=0;entryPerimeter=0;strokeColor=#003366;" parent="1" source="_YsPf8JZZJYzELwnrwj9-99" target="_YsPf8JZZJYzELwnrwj9-94" edge="1">
          <mxGeometry relative="1" as="geometry" />
        </mxCell>
        <mxCell id="_YsPf8JZZJYzELwnrwj9-118" value="No" style="text;fontStyle=0;html=1;strokeColor=none;gradientColor=none;fillColor=none;strokeWidth=2;" parent="1" vertex="1">
          <mxGeometry x="393.5" y="1009" width="40" height="16" as="geometry" />
        </mxCell>
        <mxCell id="_YsPf8JZZJYzELwnrwj9-119" value="No" style="text;fontStyle=0;html=1;strokeColor=none;gradientColor=none;fillColor=none;strokeWidth=2;" parent="1" vertex="1">
          <mxGeometry x="329" y="1480" width="40" height="16" as="geometry" />
        </mxCell>
        <mxCell id="_YsPf8JZZJYzELwnrwj9-120" value="Yes" style="text;fontStyle=0;html=1;strokeColor=none;gradientColor=none;fillColor=none;strokeWidth=2;align=center;" parent="1" vertex="1">
          <mxGeometry x="276.5" y="651" width="40" height="26" as="geometry" />
        </mxCell>
        <mxCell id="_YsPf8JZZJYzELwnrwj9-121" value="Yes" style="text;fontStyle=0;html=1;strokeColor=none;gradientColor=none;fillColor=none;strokeWidth=2;align=center;" parent="1" vertex="1">
          <mxGeometry x="276.5" y="965" width="40" height="26" as="geometry" />
        </mxCell>
        <mxCell id="_YsPf8JZZJYzELwnrwj9-122" value="Yes" style="text;fontStyle=0;html=1;strokeColor=none;gradientColor=none;fillColor=none;strokeWidth=2;align=center;" parent="1" vertex="1">
          <mxGeometry x="273" y="745" width="40" height="26" as="geometry" />
        </mxCell>
        <mxCell id="_YsPf8JZZJYzELwnrwj9-123" value="Yes" style="text;fontStyle=0;html=1;strokeColor=none;gradientColor=none;fillColor=none;strokeWidth=2;align=center;" parent="1" vertex="1">
          <mxGeometry x="276.5" y="1067" width="40" height="26" as="geometry" />
        </mxCell>
        <mxCell id="_YsPf8JZZJYzELwnrwj9-124" value="Yes" style="text;fontStyle=0;html=1;strokeColor=none;gradientColor=none;fillColor=none;strokeWidth=2;align=center;" parent="1" vertex="1">
          <mxGeometry x="395" y="1420" width="40" height="26" as="geometry" />
        </mxCell>
        <mxCell id="_YsPf8JZZJYzELwnrwj9-126" style="edgeStyle=orthogonalEdgeStyle;rounded=0;orthogonalLoop=1;jettySize=auto;html=1;exitX=0.5;exitY=0.09;exitDx=0;exitDy=0;exitPerimeter=0;entryX=0.5;entryY=0.91;entryDx=0;entryDy=0;entryPerimeter=0;curved=0;strokeColor=#003366;" parent="1" source="_YsPf8JZZJYzELwnrwj9-57" target="51" edge="1">
          <mxGeometry relative="1" as="geometry" />
        </mxCell>
        <mxCell id="_YsPf8JZZJYzELwnrwj9-127" style="edgeStyle=orthogonalEdgeStyle;rounded=1;orthogonalLoop=1;jettySize=auto;html=1;exitX=1;exitY=0.5;exitDx=0;exitDy=0;exitPerimeter=0;entryX=0.5;entryY=0.91;entryDx=0;entryDy=0;entryPerimeter=0;strokeColor=#003366;curved=0;" parent="1" source="_YsPf8JZZJYzELwnrwj9-55" target="_YsPf8JZZJYzELwnrwj9-57" edge="1">
          <mxGeometry relative="1" as="geometry">
            <Array as="points">
              <mxPoint x="546" y="611" />
            </Array>
          </mxGeometry>
        </mxCell>
      </root>
    </mxGraphModel>
  </diagram>
</mxfile>
